<?xml version="1.0" encoding="UTF-8"?>
<svg id="Layer_2" data-name="Layer 2" xmlns="http://www.w3.org/2000/svg" xmlns:xlink="http://www.w3.org/1999/xlink" viewBox="0 0 1517.53 457">
  <defs>
    <style>
      .cls-1 {
        fill: #fff;
      }

      .cls-2 {
        fill: none;
      }

      .cls-3 {
        fill: url(#New_Gradient_Swatch_1);
      }
    </style>
    <linearGradient id="New_Gradient_Swatch_1" data-name="New Gradient Swatch 1" x1="168.49" y1="121.22" x2="252.25" y2="303.35" gradientUnits="userSpaceOnUse">
      <stop offset="0" stop-color="#f0f"/>
      <stop offset=".07" stop-color="#f504fc"/>
      <stop offset=".2" stop-color="#dc10f6"/>
      <stop offset=".35" stop-color="#b223eb"/>
      <stop offset=".54" stop-color="#783ddc"/>
      <stop offset=".74" stop-color="#305eca"/>
      <stop offset=".87" stop-color="#0075be"/>
      <stop offset=".99" stop-color="#005b97"/>
    </linearGradient>
  </defs>
  <g id="Layer_1-2" data-name="Layer 1">
    <g>
      <g>
        <g>
          <path class="cls-1" d="M285.99,422.6l49.11-58.81h104.37l.86-7.2h-105.64l3.05-24.73c-15.33,16.11-33.38,29-53.77,38.38-23.28,10.71-47.98,16.14-73.41,16.14-33.2,0-65.64-9.36-93.83-27.06-28.92-18.17-51.79-44.24-66.13-75.41-40.54-88.14-1.81-192.82,86.32-233.36,23.28-10.71,47.98-16.14,73.41-16.14,33.2,0,65.64,9.36,93.83,27.06,28.92,18.17,51.79,44.24,66.13,75.41,13.68,29.75,18.77,62.48,14.77,94.88h129.52l-7.2,58.82h-105.63l-.87,7.2h105.64l-15.4,124.83h-205.14Z"/>
          <path class="cls-1" d="M210.34,37.4c65.46,0,128.08,37.35,157.23,100.72,14.43,31.37,18.63,64.81,14.07,96.63h129.55l-6.47,52.82h-105.63l-1.59,13.2h105.63l-14.66,118.84h-196.08l44.1-52.81h105.63l1.58-13.2h-105.63l3.8-30.81c-15.77,18.46-35.66,33.91-59.17,44.72-23.41,10.77-47.98,15.86-72.16,15.86-65.46,0-128.08-37.35-157.23-100.72-39.91-86.77-1.92-189.47,84.85-229.38,23.41-10.77,47.98-15.86,72.16-15.86M210.34,31.4c-25.86,0-50.99,5.52-74.66,16.41-21.94,10.09-41.26,24.18-57.4,41.88-15.59,17.09-27.59,36.81-35.65,58.6-8.06,21.79-11.79,44.57-11.07,67.7.74,23.95,6.23,47.21,16.33,69.16,14.58,31.7,37.84,58.22,67.26,76.69,28.66,18,61.66,27.52,95.42,27.52,25.86,0,50.99-5.52,74.66-16.41,18.05-8.3,34.29-19.3,48.47-32.81l-1.57,12.71-.83,6.73h105.65l-.14,1.2h-103.12l-1.8,2.15-44.1,52.81-8.22,9.85h214.21l.65-5.27,14.66-118.84.83-6.73h-105.66l.14-1.2h105.62l.65-5.27,6.47-52.82.82-6.73h-129.54c3.32-31.85-1.96-63.91-15.41-93.14-14.58-31.7-37.84-58.22-67.26-76.69-28.66-18-61.66-27.52-95.42-27.52h0Z"/>
        </g>
        <g>
          <polygon class="cls-1" points="527.09 229.01 542.48 104.17 601.34 104.17 593.16 170.19 639.93 170.19 648.96 96.97 545.32 96.97 495.82 38.15 682.26 38.15 710.8 72.54 691.58 229.01 527.09 229.01"/>
          <path class="cls-1" d="M680.86,41.15l26.81,32.31-18.74,152.55h-158.45l14.66-118.84h52.81l-8.19,66.02h52.81l9.77-79.22h-105.63l-44.46-52.82h178.59M683.67,35.15h-194.3l8.3,9.86,44.46,52.82,1.8,2.14h101.64l-8.29,67.22h-40.72l7.35-59.28.84-6.74h-64.91l-.65,5.27-14.66,118.84-.83,6.73h170.54l.65-5.27,18.74-152.55.32-2.57-1.65-1.99-26.81-32.31-1.8-2.17h0Z"/>
        </g>
        <g>
          <polygon class="cls-1" points="698.74 229.01 722.19 38.15 781.05 38.15 764.81 170.19 811.58 170.19 827.82 38.15 886.68 38.15 863.23 229.01 698.74 229.01"/>
          <path class="cls-1" d="M883.29,41.15l-22.71,184.86h-158.45l22.71-184.86h52.82l-16.24,132.04h52.82l16.24-132.04h52.81M890.07,35.15h-64.9l-.65,5.27-15.59,126.77h-40.73l15.41-125.31.83-6.73h-64.91l-.65,5.27-22.71,184.86-.83,6.73h170.54l.65-5.27,22.71-184.86.83-6.73h0Z"/>
        </g>
        <g>
          <polygon class="cls-1" points="976.02 229.01 980.9 189.39 934.13 189.39 929.25 229.01 870.39 229.01 893.84 38.15 1058.33 38.15 1034.88 229.01 976.02 229.01"/>
          <path class="cls-1" d="M1054.94,41.15l-22.71,184.86h-52.81l4.89-39.61h-52.81l-4.89,39.61h-52.81l22.71-184.86h158.45M1061.72,35.15h-170.54l-.65,5.27-22.71,184.86-.83,6.73h64.9l.65-5.27,4.24-34.35h40.72l-4.05,32.88-.83,6.73h64.91l.65-5.27,22.71-184.86.83-6.73h0Z"/>
        </g>
        <g>
          <polygon class="cls-1" points="1042.04 229.01 1065.49 38.15 1124.35 38.15 1108.11 170.19 1221.12 170.19 1269.08 229.01 1042.04 229.01"/>
          <path class="cls-1" d="M1120.96,41.15l-16.24,132.04h114.98l43.06,52.81h-217.33l22.71-184.86h52.81M1127.74,35.15h-64.91l-.65,5.27-22.71,184.86-.83,6.73h236.74l-7.98-9.79-43.06-52.81-1.8-2.21h-111.05l15.41-125.31.83-6.73h0Z"/>
        </g>
        <g>
          <polygon class="cls-1" points="551.11 422.6 567.35 290.56 514.54 290.56 521.74 231.74 686.23 231.74 679.02 290.56 626.21 290.56 609.97 422.6 551.11 422.6"/>
          <path class="cls-1" d="M682.84,234.74l-6.47,52.82h-52.81l-16.24,132.04h-52.81l16.24-132.04h-52.81l6.47-52.82h158.45M689.62,228.74h-170.54l-.65,5.27-6.47,52.82-.82,6.73h52.81l-15.41,125.31-.83,6.73h64.91l.65-5.27,15.59-126.77h52.82l.65-5.27,6.47-52.82.82-6.73h0Z"/>
        </g>
        <g>
          <polygon class="cls-1" points="777.03 422.6 747.06 356.58 736.86 356.58 728.81 422.6 669.94 422.6 693.39 231.74 857.88 231.74 842.49 356.58 814.65 356.58 844.63 422.6 777.03 422.6"/>
          <path class="cls-1" d="M854.49,234.74l-14.66,118.84h-29.84l29.97,66.02h-61l-29.97-66.02h-14.79l-8.05,66.02h-52.82l22.71-184.86h158.45M861.28,228.74h-170.54l-.65,5.27-22.71,184.86-.83,6.73h64.91l.64-5.27,7.41-60.75h5.61l28.37,62.5,1.6,3.52h74.18l-3.85-8.48-26.12-57.54h25.83l.65-5.27,14.66-118.84.83-6.73h0Z"/>
        </g>
        <g>
          <polygon class="cls-1" points="841.6 422.6 865.04 231.74 1029.53 231.74 1022.33 290.56 916.7 290.56 915.84 297.77 1021.49 297.77 1014.14 356.58 908.52 356.58 907.65 363.79 1013.29 363.79 1006.09 422.6 841.6 422.6"/>
          <path class="cls-1" d="M1026.14,234.74l-6.47,52.82h-105.63l-1.58,13.2h105.63l-6.6,52.82h-105.63l-1.58,13.2h105.63l-6.47,52.81h-158.44l22.71-184.86h158.45M1032.92,228.74h-170.54l-.65,5.27-22.71,184.86-.83,6.73h170.54l.65-5.27,6.47-52.81.82-6.73h-105.65l.14-1.2h105.61l.66-5.26,6.6-52.82.84-6.74h-105.67l.14-1.2h105.62l.65-5.27,6.47-52.82.82-6.73h0Z"/>
        </g>
        <g>
          <polygon class="cls-1" points="1118.88 422.6 1123.76 382.99 1076.99 382.99 1072.11 422.6 1013.25 422.6 1036.69 231.74 1201.19 231.74 1177.74 422.6 1118.88 422.6"/>
          <path class="cls-1" d="M1197.79,234.74l-22.71,184.86h-52.81l4.89-39.61h-52.81l-4.89,39.61h-52.82l22.71-184.86h158.45M1204.58,228.74h-170.54l-.65,5.27-22.71,184.86-.83,6.73h64.9l.65-5.27,4.24-34.35h40.72l-4.05,32.88-.83,6.73h64.91l.65-5.27,22.71-184.86.83-6.73h0Z"/>
        </g>
        <path class="cls-1" d="M1498.01,433.92l-54.6-64.56,19.2-156.28,1.93-15.74h-176.89l-45.98-56.39-4.21-5.16h-90.46l14.3-116.3,1.94-15.74H421.9l19.41,23.06,66.34,78.81-11.31,91.72h-75.92c-1.57-25.89-7.89-51.01-18.86-74.86C367.33,48.08,292.27,0,210.34,0c-30.43,0-59.96,6.49-87.79,19.29C71.52,42.76,32.67,84.71,13.18,137.4c-19.49,52.7-17.3,109.83,6.18,160.87,34.22,74.41,109.27,122.49,191.2,122.49,11.64,0,23.17-.95,34.53-2.85l-13.42,16.07-19.22,23.01h1305.08l-19.52-23.08Z"/>
        <g>
          <polygon class="cls-1" points="1343.34 422.6 1359.58 290.56 1339.22 290.56 1322.98 422.6 1264.12 422.6 1280.36 290.56 1260 290.56 1243.76 422.6 1184.9 422.6 1208.34 231.74 1425.65 231.74 1407.43 380.1 1443.38 422.6 1343.34 422.6"/>
          <path class="cls-1" d="M1422.26,234.74l-17.85,145.33-.12.96,32.62,38.57h-90.18l16.24-132.04h-26.41l-16.24,132.04h-52.82l16.24-132.04h-26.41l-16.24,132.04h-52.81l22.71-184.86h211.26M1429.04,228.74h-223.35l-.65,5.27-22.71,184.86-.83,6.73h64.9l.65-5.27,15.59-126.77h14.32l-15.41,125.31-.83,6.73h64.91l.65-5.27,15.59-126.77h14.32l-15.41,125.31-.83,6.73h109.89l-8.35-9.87-30.93-36.57,17.65-143.68.83-6.73h0Z"/>
        </g>
      </g>
      <g>
        <g>
          <g>
            <circle cx="210.45" cy="212.46" r="172.94"/>
            <circle class="cls-1" cx="210.45" cy="212.46" r="105.71"/>
            <path class="cls-3" d="M303.18,170.13c-.04-.09-.08-.17-.12-.26-23.52-51.15-84.06-73.54-135.21-50.01-51.08,23.49-73.48,83.9-50.11,135,.03.07.06.14.09.2,23.52,51.15,84.06,73.54,135.21,50.01,51.06-23.48,73.46-83.85,50.13-134.94Z"/>
            <circle cx="210.45" cy="212.46" r="8.05"/>
          </g>
          <polygon class="cls-1" points="167.77 149.76 183.09 156.96 199.05 205.98 196.14 219.08 144.38 242.67 129.55 196.85 148.8 187.88 157.03 213.34 176.29 204.38 166.4 173.83 127.88 191.76 114.32 175.4 167.77 149.76"/>
          <polygon class="cls-1" points="280.3 203.51 241.78 221.45 243.45 226.53 281.96 208.6 296.79 254.41 226.78 287.01 232.41 260.96 270.93 243.02 269.27 237.94 230.75 255.88 220.1 223.13 223.9 206.39 273.76 183.52 280.3 203.51"/>
        </g>
        <g>
          <polygon class="cls-2" points="740.81 302.84 793.62 302.84 795.21 289.64 742.39 289.64 740.81 302.84"/>
          <polygon class="cls-2" points="995.65 96.04 942.84 96.04 937.95 135.66 990.77 135.66 995.65 96.04"/>
          <polygon class="cls-2" points="1080.81 329.25 1133.62 329.25 1138.51 289.64 1085.69 289.64 1080.81 329.25"/>
          <polygon points="546.72 96.04 652.35 96.04 642.58 175.27 589.76 175.27 597.95 109.25 545.14 109.25 530.48 228.08 688.92 228.08 707.67 75.54 680.86 43.23 502.27 43.23 546.72 96.04"/>
          <polygon points="860.58 228.08 883.29 43.23 830.47 43.23 814.23 175.27 761.42 175.27 777.66 43.23 724.84 43.23 702.13 228.08 860.58 228.08"/>
          <path d="M926.6,228.08l4.89-39.61h52.81l-4.89,39.61h52.81l22.71-184.86h-158.45l-22.71,184.86h52.81ZM942.84,96.04h52.81l-4.89,39.61h-52.81l4.89-39.61Z"/>
          <polygon points="1262.76 228.08 1219.7 175.27 1104.72 175.27 1120.96 43.23 1068.14 43.23 1045.43 228.08 1262.76 228.08"/>
          <polygon points="347.86 276.38 338.09 355.66 443.72 355.66 442.13 368.86 336.5 368.86 292.4 421.68 488.48 421.68 503.14 302.84 397.5 302.84 399.09 289.64 504.72 289.64 511.19 236.82 380.69 236.82 347.86 276.38"/>
          <polygon points="682.84 236.82 524.39 236.82 517.93 289.64 570.74 289.64 554.5 421.68 607.31 421.68 623.55 289.64 676.37 289.64 682.84 236.82"/>
          <path d="M839.84,355.66l14.66-118.84h-158.45l-22.71,184.86h52.82l8.05-66.02h14.79l29.97,66.02h61l-29.97-66.02h29.84ZM793.62,302.84h-52.82l1.59-13.2h52.81l-1.58,13.2Z"/>
          <polygon points="1011.49 355.66 1018.09 302.84 912.46 302.84 914.04 289.64 1019.67 289.64 1026.14 236.82 867.7 236.82 844.99 421.68 1003.43 421.68 1009.9 368.86 904.27 368.86 905.85 355.66 1011.49 355.66"/>
          <path d="M1039.35,236.82l-22.71,184.86h52.82l4.89-39.61h52.81l-4.89,39.61h52.81l22.71-184.86h-158.45ZM1133.62,329.25h-52.81l4.89-39.61h52.81l-4.89,39.61Z"/>
          <polygon points="1436.91 421.68 1404.29 383.11 1404.41 382.15 1422.26 236.82 1211 236.82 1188.29 421.68 1241.1 421.68 1257.34 289.64 1283.75 289.64 1267.51 421.68 1320.33 421.68 1336.57 289.64 1362.98 289.64 1346.73 421.68 1436.91 421.68"/>
        </g>
      </g>
    </g>
  </g>
</svg>