<?xml version="1.0" encoding="UTF-8"?>
<svg id="Layer_2" data-name="Layer 2" xmlns="http://www.w3.org/2000/svg" xmlns:xlink="http://www.w3.org/1999/xlink" viewBox="0 0 300.07 300.07">
  <defs>
    <style>
      .cls-1 {
        fill: #fff;
      }

      .cls-2 {
        fill: url(#New_Gradient_Swatch_1);
      }
    </style>
    <linearGradient id="New_Gradient_Swatch_1" data-name="New Gradient Swatch 1" x1="130.41" y1="69.94" x2="169.48" y2="229.39" gradientUnits="userSpaceOnUse">
      <stop offset="0" stop-color="#f0f"/>
      <stop offset=".07" stop-color="#f504fc"/>
      <stop offset=".2" stop-color="#dc10f6"/>
      <stop offset=".35" stop-color="#b223eb"/>
      <stop offset=".54" stop-color="#783ddc"/>
      <stop offset=".74" stop-color="#305eca"/>
      <stop offset=".87" stop-color="#0075be"/>
      <stop offset=".99" stop-color="#005b97"/>
    </linearGradient>
  </defs>
  <g id="Layer_1-2" data-name="Layer 1">
    <g>
      <circle cx="150.04" cy="150.04" r="150"/>
      <circle class="cls-1" cx="150.04" cy="150.04" r="88.42"/>
      <path class="cls-2" d="M135.93,162.05l7.12-1.8.24,1.84-7.12,1.8-.24-1.84ZM182.93,155.83l7.12-1.8-.69-5.51-7.12,1.8.69,5.51ZM230.55,129.65c11.26,44.47-15.66,89.64-60.13,100.9-44.47,11.26-89.64-15.66-100.9-60.13-11.26-44.47,15.66-89.64,60.13-100.9,44.47-11.26,89.64,15.66,100.9,60.13ZM170.66,117.21l3.25,25.71,22.96-5.81-3.15-6.78-13.62,3.45-2.32-18.37-7.12,1.8ZM94.86,136.41l7.27,5.74,14.25-3.61,1.39,11.02-7.12,1.8-1.15-9.18-7.12,1.8,2.08,16.53,21.37-5.41-2.68-21.22-4.74-3.44-23.54,5.96ZM102.94,162.82l-21.37,5.41,2.08,16.53,14.25-3.61.24,1.84-14.25,3.61-3.6,8.49,25.9-6.56-2.08-16.53-14.25,3.61-.24-1.84,14.25-3.61-.93-7.35ZM119.9,166.11l7.12-1.8-.93-7.35-21.37,5.41.93,7.35,7.12-1.8,2.32,18.37,7.12-1.8-2.32-18.37ZM160.47,167.21l-.24-1.84,14.25-3.61-.91-7.35-14.25,3.61-.24-1.84,14.25-3.61-.93-7.35-18.05,4.57c-.02-.27-.05-.55-.12-.83-.09-.35-.22-.67-.38-.97l4.04-1.02-.69-5.51,7.12-1.8.69,5.51,7.12-1.8-3.25-25.71-21.37,5.41,2.86,22.66c-.46-.04-.93,0-1.4.12-.14.04-.28.08-.41.13l-2.84-22.45-7.12,1.8,2.32,18.37-7.12,1.8-2.32-18.37-7.12,1.8,3.25,25.71,18.12-4.59c0,.34.04.69.13,1.03.07.28.17.54.28.79l-18.26,4.62,3.25,25.71,7.12-1.8-1.17-9.18,1.99-.51,6.3,7.88,8.23-2.08-6.3-7.88,4.03-1.02-1.67-13.29c.47.04.96.01,1.44-.11.13-.03.25-.07.37-.11l2.81,22.25,21.37-5.41-.93-7.35-14.25,3.61ZM198.8,165.08l-3.25-25.71-21.37,5.41,3.25,25.71,7.12-1.8-.69-5.51,7.12-1.8.69,5.51,7.12-1.8ZM219.64,140.85l2.32,18.37,10.82-2.74-4.18-2.9-2.76-21.87-28.5,7.21,3.25,25.71,7.12-1.8-2.32-18.37,3.56-.9,2.32,18.37,7.12-1.8-2.32-18.37,3.56-.9ZM162.69,126.81l-7.12,1.8.69,5.51,7.12-1.8-.69-5.51Z"/>
      <circle cx="150.04" cy="150.04" r="3.03"/>
    </g>
  </g>
</svg>